<svg xmlns="http://www.w3.org/2000/svg" xmlns:xlink="http://www.w3.org/1999/xlink" width="500" zoomAndPan="magnify" viewBox="0 0 375 74.999997" height="100" preserveAspectRatio="xMidYMid meet" version="1.0"><defs><filter x="0%" y="0%" width="100%" xlink:type="simple" xlink:actuate="onLoad" height="100%" id="id1" xlink:show="other"><feColorMatrix values="0 0 0 0 1 0 0 0 0 1 0 0 0 0 1 0 0 0 1 0" color-interpolation-filters="sRGB"/></filter><g/><mask id="id2"><g filter="url(#id1)"><rect x="-37.5" width="450" fill="rgb(0%, 0%, 0%)" y="-7.5" height="89.999996" fill-opacity="0.2196"/></g></mask><clipPath id="id3"><path d="M 0.265625 0.332031 L 72.265625 0.332031 L 72.265625 72.332031 L 0.265625 72.332031 Z M 0.265625 0.332031 " clip-rule="nonzero"/></clipPath><clipPath id="id4"><rect x="0" width="73" y="0" height="73"/></clipPath></defs><g fill="rgb(100%, 100%, 100%)" fill-opacity="1"><g transform="translate(123.449207, 57.269153)"><g><path d="M 18.867188 -31.148438 L 18.867188 -15.574219 L 8.097656 -31.148438 L 2.226562 -31.148438 L 2.226562 0 L 9.789062 0 L 9.789062 -15.171875 L 20.425781 0 L 26.386719 0 L 26.386719 -31.148438 Z M 18.867188 -31.148438 "/></g></g></g><g fill="rgb(100%, 100%, 100%)" fill-opacity="1"><g transform="translate(152.193662, 57.269153)"><g><path d="M 21.09375 0 L 29.28125 0 L 29.28125 -0.621094 L 19.265625 -15.796875 L 29.234375 -30.4375 L 29.234375 -31.148438 L 21.136719 -31.148438 L 14.949219 -22.292969 L 8.855469 -31.148438 L 0.84375 -31.148438 L 0.84375 -30.257812 L 10.679688 -15.796875 L 0.710938 -0.621094 L 0.710938 0 L 8.898438 0 L 14.949219 -9.476562 Z M 21.09375 0 "/></g></g></g><g fill="rgb(100%, 100%, 100%)" fill-opacity="1"><g transform="translate(182.62897, 57.269153)"><g><path d="M 0.222656 -19.089844 L 0.222656 -12.238281 L 13.925781 -12.238281 L 13.925781 -19.089844 Z M 0.222656 -19.089844 "/></g></g></g><g fill="rgb(100%, 100%, 100%)" fill-opacity="1"><g transform="translate(199.84894, 57.269153)"><g><path d="M 6.585938 -10.324219 L -0.179688 -9.210938 C 0.0429688 -2.3125 5.519531 0.402344 10.769531 0.402344 C 18.421875 0.402344 22.25 -5.339844 22.25 -10.769531 C 22.25 -17.398438 17.355469 -21.179688 11.570312 -21.226562 C 10.191406 -21.226562 8.808594 -21.003906 7.386719 -20.601562 L 7.386719 -24.695312 L 20.734375 -24.695312 L 20.734375 -31.546875 L 0.265625 -31.546875 L 0.265625 -14.683594 L 4.273438 -12.902344 C 6.40625 -14.148438 8.230469 -14.816406 9.746094 -14.816406 C 12.191406 -14.816406 14.90625 -13.617188 14.90625 -10.636719 C 14.90625 -8.230469 12.859375 -6.984375 10.769531 -6.984375 C 8.855469 -6.984375 6.898438 -8.054688 6.585938 -10.324219 Z M 6.585938 -10.324219 "/></g></g></g><g fill="rgb(100%, 100%, 100%)" fill-opacity="1"><g transform="translate(225.078205, 57.269153)"><g><path d="M 0.222656 -19.667969 L 7.652344 -19.667969 C 7.652344 -22.472656 9.476562 -24.339844 11.570312 -24.339844 C 14.195312 -24.339844 15.574219 -22.78125 15.574219 -21.09375 C 15.574219 -19.890625 14.683594 -18.601562 13.347656 -17.398438 L 0.265625 -5.472656 L 0.265625 0 L 23.09375 0 L 23.09375 -7.121094 L 12.28125 -7.121094 L 18.511719 -12.015625 C 21.535156 -14.507812 23.226562 -17.753906 23.226562 -20.957031 C 23.226562 -26.386719 19.980469 -31.636719 11.570312 -31.636719 C 4.582031 -31.636719 0.222656 -26.429688 0.222656 -19.667969 Z M 0.222656 -19.667969 "/></g></g></g><g mask="url(#id2)"><g transform="matrix(1, 0, 0, 1, 85, 1)"><g clip-path="url(#id4)"><g clip-path="url(#id3)"><path fill="rgb(36.079407%, 88.238525%, 90.19928%)" d="M 72.234375 33.5625 C 72.238281 33.535156 72.230469 33.511719 72.222656 33.488281 C 72.222656 33.488281 72.222656 33.484375 72.222656 33.484375 L 65.046875 14.707031 C 65.046875 14.703125 65.046875 14.703125 65.042969 14.699219 C 65.03125 14.671875 65.015625 14.648438 64.992188 14.628906 L 49.210938 2.121094 C 49.1875 2.101562 49.15625 2.085938 49.125 2.078125 C 49.121094 2.078125 49.121094 2.078125 49.117188 2.078125 L 36.238281 0.332031 C 36.214844 0.332031 36.1875 0.332031 36.164062 0.339844 L 30.023438 2.078125 L 29.851562 2.078125 C 29.816406 2.078125 29.78125 2.085938 29.753906 2.105469 L 29.597656 2.199219 L 14.488281 6.476562 C 14.484375 6.480469 14.480469 6.484375 14.476562 6.484375 C 14.457031 6.492188 14.4375 6.503906 14.421875 6.515625 C 14.414062 6.523438 14.40625 6.527344 14.402344 6.535156 C 14.398438 6.539062 14.394531 6.539062 14.390625 6.542969 L 1.160156 23.660156 C 1.15625 23.664062 1.15625 23.671875 1.152344 23.675781 C 1.148438 23.683594 1.140625 23.691406 1.136719 23.699219 C 1.136719 23.703125 1.132812 23.710938 1.132812 23.714844 C 1.128906 23.726562 1.128906 23.734375 1.125 23.746094 C 1.125 23.753906 1.121094 23.757812 1.121094 23.765625 L 0.289062 38.816406 C 0.289062 38.828125 0.289062 38.84375 0.289062 38.855469 L 1.511719 46.46875 C 1.511719 46.480469 1.515625 46.488281 1.519531 46.496094 C 1.523438 46.503906 1.519531 46.511719 1.523438 46.515625 C 1.523438 46.519531 1.527344 46.519531 1.527344 46.519531 C 1.527344 46.523438 1.527344 46.523438 1.527344 46.527344 L 7.6875 58.21875 C 7.699219 58.238281 7.714844 58.257812 7.730469 58.273438 L 14.953125 64.636719 C 14.964844 64.652344 14.980469 64.660156 14.992188 64.671875 L 23.347656 70.28125 C 23.371094 70.296875 23.398438 70.308594 23.425781 70.3125 L 36.53125 72.34375 C 36.535156 72.34375 36.535156 72.34375 36.535156 72.34375 C 36.546875 72.34375 36.554688 72.347656 36.5625 72.347656 C 36.5625 72.347656 36.5625 72.347656 36.566406 72.347656 C 36.578125 72.347656 36.589844 72.34375 36.601562 72.34375 C 36.601562 72.34375 36.601562 72.34375 36.605469 72.339844 C 36.605469 72.339844 36.609375 72.339844 36.609375 72.339844 L 36.613281 72.339844 C 36.613281 72.339844 36.613281 72.339844 36.617188 72.339844 L 58.03125 66.101562 C 58.039062 66.097656 58.046875 66.089844 58.050781 66.085938 C 58.074219 66.078125 58.089844 66.066406 58.105469 66.050781 C 58.113281 66.042969 58.125 66.042969 58.128906 66.035156 L 71.160156 48.910156 C 71.179688 48.882812 71.1875 48.851562 71.191406 48.820312 C 71.195312 48.816406 71.195312 48.8125 71.195312 48.808594 Z M 70.832031 48.648438 L 65.195312 50.066406 L 71.785156 34.648438 Z M 47.964844 46.460938 L 27.199219 39.179688 L 42.859375 27.941406 Z M 42.863281 27.335938 L 27.246094 17.15625 L 47.550781 11.367188 Z M 42.636719 27.636719 L 26.984375 38.871094 L 26.984375 17.433594 Z M 26.609375 38.9375 L 8.84375 30.246094 L 26.609375 17.457031 Z M 30.457031 59.769531 L 13.519531 50.3125 L 26.671875 39.585938 Z M 27.042969 39.523438 L 47.851562 46.820312 L 30.84375 59.792969 Z M 48.078125 47.121094 L 49.175781 62.632812 L 31.183594 60.007812 Z M 48.320312 46.332031 L 43.226562 27.84375 L 60.550781 29.570312 Z M 60.792969 29.878906 L 64.632812 50.097656 L 48.566406 46.636719 Z M 64.941406 49.699219 L 61.144531 29.710938 L 71.796875 33.660156 Z M 60.820312 28.984375 L 48.261719 11.378906 L 64.640625 14.917969 Z M 60.503906 29.1875 L 43.214844 27.464844 L 47.898438 11.515625 Z M 27.042969 16.820312 L 29.984375 2.542969 L 47.304688 11.042969 Z M 26.65625 16.839844 L 13.367188 12.414062 L 29.578125 2.648438 Z M 26.386719 17.148438 L 8.785156 29.824219 L 13.054688 12.707031 Z M 8.371094 29.925781 L 1.582031 23.769531 L 12.578125 13.0625 Z M 12.753906 12.363281 L 3.09375 21.773438 L 14.097656 7.535156 Z M 8.253906 30.328125 L 1.871094 45.539062 L 1.503906 24.207031 Z M 8.429688 30.886719 L 12.925781 50.054688 L 1.949219 46.328125 Z M 8.753906 30.621094 L 26.449219 39.277344 L 13.300781 50.003906 Z M 30.226562 60.070312 L 15.253906 64.273438 L 13.425781 50.691406 Z M 30.613281 60.351562 L 36.191406 71.828125 L 15.714844 64.535156 Z M 36.632812 71.871094 L 31.039062 60.367188 L 48.894531 62.972656 Z M 49.542969 62.480469 L 48.449219 46.996094 L 64.449219 50.441406 Z M 64.386719 50.976562 L 57.878906 65.683594 L 49.757812 62.789062 Z M 65.007812 50.5 L 70.535156 49.109375 L 58.800781 64.53125 Z M 61.125 29.300781 L 64.902344 15.382812 L 71.722656 33.230469 Z M 49.234375 2.617188 L 64.121094 14.421875 L 48.039062 10.945312 Z M 36.226562 0.710938 L 46.308594 2.078125 L 31.402344 2.078125 Z M 48.875 2.453125 L 47.675781 10.808594 L 30.660156 2.453125 Z M 13.230469 12.058594 L 14.691406 6.808594 L 28.371094 2.9375 Z M 0.664062 38.816406 L 1.210938 28.988281 L 1.460938 43.789062 Z M 8.007812 58.011719 L 3.007812 48.523438 L 13.882812 63.191406 Z M 2.207031 46.8125 L 13.015625 50.480469 L 14.8125 63.8125 Z M 16.441406 65.191406 L 34.625 71.667969 L 23.523438 69.945312 Z M 49.410156 63.0625 L 57.371094 65.902344 L 37.550781 71.675781 Z M 49.410156 63.0625 " fill-opacity="1" fill-rule="nonzero"/></g></g></g></g></svg>